<svg xmlns="http://www.w3.org/2000/svg" viewBox="0 0 1200 630" role="img" aria-label="Personal Kanban Board preview">
  <rect width="1200" height="630" fill="#f8fafc"/>
  <rect x="80" y="70" width="1040" height="490" rx="28" fill="#ffffff" stroke="#dbe3ef" stroke-width="4"/>
  <text x="130" y="155" fill="#111827" font-family="Arial, sans-serif" font-size="58" font-weight="700">Personal Kanban Board</text>
  <text x="130" y="210" fill="#64748b" font-family="Arial, sans-serif" font-size="28">Tasks, due dates, comments, priorities, and archive history.</text>
  <g transform="translate(130 275)">
    <rect width="270" height="220" rx="18" fill="#f1f5f9"/>
    <rect x="24" y="24" width="150" height="22" rx="6" fill="#0f766e"/>
    <rect x="24" y="68" width="210" height="54" rx="10" fill="#ffffff" stroke="#dbe3ef" stroke-width="3"/>
    <rect x="24" y="140" width="180" height="54" rx="10" fill="#ffffff" stroke="#dbe3ef" stroke-width="3"/>
  </g>
  <g transform="translate(465 275)">
    <rect width="270" height="220" rx="18" fill="#eef2ff"/>
    <rect x="24" y="24" width="180" height="22" rx="6" fill="#4f46e5"/>
    <rect x="24" y="68" width="210" height="54" rx="10" fill="#ffffff" stroke="#c7d2fe" stroke-width="3"/>
    <rect x="24" y="140" width="160" height="54" rx="10" fill="#ffffff" stroke="#c7d2fe" stroke-width="3"/>
  </g>
  <g transform="translate(800 275)">
    <rect width="270" height="220" rx="18" fill="#f0fdf4"/>
    <rect x="24" y="24" width="120" height="22" rx="6" fill="#16a34a"/>
    <rect x="24" y="68" width="210" height="54" rx="10" fill="#ffffff" stroke="#bbf7d0" stroke-width="3"/>
    <circle cx="52" cy="168" r="16" fill="#facc15"/>
    <rect x="82" y="155" width="118" height="18" rx="6" fill="#86efac"/>
  </g>
</svg>
